<svg width="70" height="70" viewBox="0 0 70 70" fill="none" xmlns="http://www.w3.org/2000/svg">
<path d="M38.1883 27.6336L37.9695 17.5547C37.9695 17.5547 43.225 14.7766 44.2312 12.9445C45.2375 11.1125 44.8219 8.03905 43.7008 7.92421C42.5797 7.80936 37.7344 11.3531 37.3242 10.9375C36.9086 10.5219 39.3312 7.56874 39.2164 6.44764C39.0961 5.32655 35.4922 2.58124 35.4922 2.58124L31.418 7.21327C31.418 7.21327 32.5992 10.8773 32.4242 11.2328C32.2492 11.5883 26.693 8.15936 25.5117 8.39452C24.3305 8.62968 24.7352 11.0305 25.1453 12.157C25.5609 13.2781 33.1297 16.7836 33.1297 16.7836L32.8016 27.7867C32.8016 27.7867 31.418 27.7648 31.0625 27.9453C30.707 28.1203 29.8594 29.5422 29.8594 29.5422C29.8594 29.5422 21.9023 25.2328 21.8422 24.3469C21.782 23.4609 21.9625 15.5422 21.5469 14.7164C21.1313 13.8906 19.3594 12.9281 18.4734 12.9281C17.5875 12.9281 16.9969 21.6836 16.4664 21.6836C15.9359 21.6836 13.9234 16.543 13.3328 16.543C12.7422 16.543 8.16484 17.3086 8.16484 17.3086L9.90938 24.2812L15.3453 25.4023L8.68984 32.9273C8.68984 32.9273 10.3195 34.5133 11.8563 34.1578C13.393 33.8023 17.8227 29.3726 18.293 29.3726C18.7633 29.3726 26.8023 33.9828 26.8023 33.9828C26.8023 33.9828 26.4469 34.8086 26.682 35.2844C26.9172 35.7547 27.3328 36.3453 27.3328 36.3453C27.3328 36.3453 19.3594 41.1906 18.8234 41.0703C18.2875 40.95 12.9172 37.1109 11.3805 37.1109C9.84375 37.1109 8.89766 39.118 8.89766 39.118L15.2797 44.4937L9.90391 47.1516L7.60156 51.9367C7.60156 51.9367 12.8023 53.7687 13.5078 53.5883C14.2133 53.4078 16.0508 49.0383 16.4008 48.9234C16.7563 48.8031 16.8875 49.9187 16.8875 49.9187C16.8875 49.9187 18.7633 55.7812 19.4742 55.6008C20.1852 55.4203 21.957 54.2992 22.1922 53.4133C22.4273 52.5273 21.8422 45.5 21.8422 45.5L30.2312 40.9445C30.2312 40.9445 30.8984 42.0273 31.3523 42.3555C31.7078 42.6125 33.4742 42.782 33.4742 42.782L33.2391 51.9367C33.2391 51.9367 24.4891 55.7101 24.1938 56.7711C23.8984 57.832 23.9641 60.2055 24.7953 60.5008C25.6211 60.7961 32.0742 57.843 32.3695 58.0781C32.6648 58.3133 32.2437 62.6828 32.2437 62.6828C32.2437 62.6828 35.7109 67.5828 36.4766 67.1125C37.2422 66.6422 39.9273 63.6344 39.9492 63.0765C39.9984 62.0211 37.368 58.3844 37.4172 58.1711C37.5211 57.7062 42.875 61.5617 43.8211 61.4414C44.7672 61.3211 45.4727 60.3203 45.4727 59.1937C45.4727 58.0726 38.2648 52.757 38.2648 52.757L38.15 42.6016C38.15 42.6016 39.5445 42.525 40.0203 42.2898C40.4906 42.0547 41.4313 39.9164 41.4313 39.9164L50.0227 45.675C50.0227 45.675 49.6672 55.3656 50.5531 55.9562C51.4391 56.5469 53.0359 56.9023 53.6266 56.607C54.2172 56.3117 54.2773 48.043 54.2773 48.043L58.0016 51.4117C58.0016 51.4117 63.35 50.9359 63.35 50.225C63.35 49.514 62.2781 45.5 61.8461 45.15C61.075 44.5265 57.6734 44.8328 57.2742 44.6195C56.957 44.45 63.4977 41.8414 63.4977 40.7805C63.4977 39.7195 61.3594 38.0406 60.7687 37.9805C60.1781 37.9203 52.4508 41.3711 52.4508 41.3711L43.4711 36.0555C43.4711 36.0555 43.9414 35.2297 43.9414 34.814C43.9414 34.3984 43.3562 33.7039 43.3562 33.7039L52.5656 28.6726C52.5656 28.6726 60.6594 31.5656 61.425 31.2156C62.1906 30.8601 62.8414 30.2094 62.8414 29.5641C62.8414 28.9187 56.0055 25.7742 56.5195 25.4898C56.9133 25.2711 60.7141 25.725 61.3047 25.4898C61.8953 25.2547 63.7766 20.4641 63.7164 20.2289C63.6562 19.9937 57.2852 18.4023 57.2852 18.4023L54.4469 21.7711C54.4469 21.7711 54.9172 15.3891 54.2117 14.6836C53.5062 13.9781 51.5977 14.3281 50.832 14.8586C50.0664 15.3891 49.607 24.7844 49.607 24.7844L40.9445 29.482C40.9445 29.482 40.1352 28.1805 39.6594 27.9398C39.1945 27.6828 38.1883 27.6336 38.1883 27.6336Z" fill="#95C7EC"/>
<path d="M41.8031 30.6523L51.9531 25.3586L51.8 14.4375C51.8 14.4375 50.225 14.7055 49.4539 15.7336C48.6828 16.7617 48.9398 23.6687 48.9398 23.6687L40.157 28.443L41.8031 30.6523ZM54.4031 24.0078C54.4031 24.0078 57.7281 19.8734 58.368 19.6656C59.4398 19.3156 63.5797 20.7703 63.5797 20.7703C63.5797 20.7703 64.0391 19.6273 63.8531 19.1844C63.6672 18.7414 58.5758 16.4664 57.3562 16.8984C56.4047 17.2375 54.4687 20.9125 54.4687 20.9125L54.4031 24.0078ZM54.1187 27.7484C53.9 27.7102 52.1281 28.8695 52.1281 28.8695C52.1281 28.8695 57.3891 32.0578 58.9312 32.1289C60.8344 32.2219 62.0922 30.8328 62.0922 30.8328C62.0922 30.8328 60.7305 30.8711 59.7406 30.5047C58.1273 29.9031 54.1187 27.7484 54.1187 27.7484ZM42.2133 38.3305L40.9664 40.868C40.9664 40.868 48.4641 45.5328 48.4969 45.757C48.5351 45.9758 48.3109 54.0586 49.0875 54.9773C49.8586 55.8961 51.3297 56.3719 51.3297 56.3719C51.3297 56.3719 51.7726 44.4664 51.7344 44.2805C51.6906 44.0945 42.2133 38.3305 42.2133 38.3305ZM51.7781 40.95C51.7781 40.95 57.0609 37.3734 58.4937 37.3734C59.9266 37.3734 61.1406 38.1062 61.1406 38.1062L54.1516 42.3336L51.7781 40.95ZM54.5234 46.3258C54.3375 46.8398 54.2445 48.7648 54.2445 48.7648C54.2445 48.7648 55.9617 52.8062 57.1703 53.2437C58.3844 53.6867 63.0109 51.9586 63.3828 51.5156C63.7492 51.0726 63.2078 49.2789 63.2078 49.2789C63.2078 49.2789 59.5492 50.7281 58.4555 50.5258C57.0555 50.2687 54.5234 46.3258 54.5234 46.3258ZM32.282 29.9906C31.7516 30.5211 29.4383 33.9172 29.3945 34.5734C29.3508 35.2352 31.9266 39.6375 32.5445 39.9875C33.1625 40.3375 38.1391 39.9875 38.1391 39.9875L40.693 34.743C40.693 34.743 38.4453 29.9414 38.0953 29.8539C37.7453 29.7664 32.6375 29.6352 32.282 29.9906ZM34.5516 12.0641C34.9016 12.1297 33.2555 7.16952 33.2555 7.16952L36.8976 3.72968C36.8976 3.72968 35.5414 2.05624 34.8414 2.05624C34.1359 2.05624 30.3023 5.62187 30.3023 6.46406C30.3023 7.30624 32.4187 11.2328 32.4187 11.2328C32.4187 11.2328 33.8844 11.9383 34.5516 12.0641ZM24.7406 10.3523C24.7406 10.3523 24.7461 12.8297 25.5391 13.7101C26.332 14.5906 31.9758 17.3523 31.9758 17.3523L32.118 27.8031L34.5734 27.7922V15.6297C34.5734 15.6297 29.6844 13.2945 28.7164 12.857C27.7484 12.4141 25.4461 11.2766 24.7406 10.3523ZM21.6672 26.0695L29.0664 30.7398L30.2586 28.9352L21.8422 24.0023L21.6672 26.0695ZM16.3898 21.7328C16.3898 21.7328 17.9539 23.2695 18.293 23.2586C18.9492 23.2367 18.9055 13.0047 18.9055 13.0047C18.9055 13.0047 17.6422 12.5289 16.9805 13.1469C16.3133 13.7594 16.3898 21.7328 16.3898 21.7328ZM15.5914 24.2211C17.1609 24.6203 16.8656 25.7195 16.6469 26.0695C16.4281 26.4195 9.24765 33.3812 9.24765 33.3812C9.24765 33.3812 7.88046 32.632 7.88046 31.8391C7.88046 31.0461 14.1094 25.9219 13.7812 25.8453C13.5242 25.7906 9.06718 26.5398 8.09921 25.9328C7.47577 25.5445 5.74765 19.0422 6.07577 18.1672C6.33827 17.4617 8.58593 17.2539 8.58593 17.2539C8.58593 17.2539 9.3789 23.0672 9.99687 23.3789C10.6094 23.6906 14.3391 23.9039 15.5914 24.2211ZM27.1797 36.0773L18.4078 40.8898L20.6117 42.6781L28.2734 37.7453L27.1797 36.0773ZM17.1773 44.1766C17.1117 44.9258 14.0273 46.4352 13.7648 46.6594C13.5023 46.8781 10.6148 46.2055 10.4344 46.468C10.2594 46.7305 8.60234 51.8273 8.29062 52.1281C8.24687 52.1719 6.4914 51.625 6.36015 51.3352C6.04296 50.6406 8.01171 45.1445 8.89218 44.3516C9.77265 43.5586 13.65 44.5703 13.7812 44.3078C13.9125 44.0453 8.71718 41.2234 8.31796 40.343C7.92421 39.4625 9.59765 38.0516 9.59765 38.0516C9.59765 38.0516 17.2648 43.1594 17.1773 44.1766ZM18.3148 47.0859C18.025 46.8836 16.4992 48.9125 16.4992 48.9125C16.4992 48.9125 17.0351 55.4695 17.5328 55.8906C18.0359 56.3172 19.4851 55.5953 19.4851 55.5953C19.4851 55.5953 18.7523 47.3922 18.3148 47.0859ZM32.375 42.618C32.375 42.618 32.457 50.7828 32.282 51.0891C32.107 51.3953 25.4625 54.5508 24.5273 55.7594C23.893 56.5797 24.057 58.7398 24.057 58.7398C24.057 58.7398 34.2617 52.9867 34.4805 52.8117C34.6992 52.6367 34.5297 42.6453 34.5297 42.6453L32.375 42.618ZM45.4617 59.3742C45.4617 59.3742 38.4453 55.0266 38.3633 54.4414C38.2812 53.8836 38.2375 51.4664 38.2375 51.4664C38.2375 51.4664 44.4008 55.8031 45.0187 56.8148C45.6367 57.8266 45.4617 59.3742 45.4617 59.3742ZM33.0312 62.1031C33.1406 63.2461 37.1984 66.5055 37.1984 66.5055C37.1984 66.5055 35.9133 67.8945 35.2516 67.9383C34.5898 67.982 30.2531 63.8203 30.1656 63.1203C30.0781 62.4148 32.3695 57.9687 32.3695 57.9687C32.3695 57.9687 33.3976 57.4766 34.1742 57.3125C34.6664 57.2031 32.9273 60.993 33.0312 62.1031Z" fill="#AFE3FF"/>
<path d="M38.8281 34.1742C38.8281 34.1742 38.1773 35.4703 37.8547 36.2031C37.532 36.9359 37.1273 38.1883 37.1273 38.1883C37.1273 38.1883 34.0867 38.4234 33.2773 38.3906C32.2219 38.3523 31.6148 40.2555 33.157 40.2938C34.6992 40.332 38.3851 40.4141 38.7078 40.1734C39.0305 39.9328 41.4203 35.5523 41.4203 34.5789C41.4203 33.6055 39.3148 30.893 38.5437 30.1219C37.6469 29.225 36.0719 30.1219 36.9633 31.582C37.8547 33.0422 38.8281 34.1742 38.8281 34.1742ZM51.0945 16.2039C49.8586 16.1602 49.9515 17.8336 49.9953 19.7695C50.039 21.7055 50.1703 22.9852 51.182 22.9852C52.418 22.9852 52.1937 20.3 52.1937 19.0641C52.1937 17.8336 52.3742 16.2477 51.0945 16.2039ZM34.8851 4.13438C35.6015 4.85079 34.6226 6.07032 34.2234 6.42579C33.8297 6.77579 32.725 7.48125 31.9758 6.77579C31.2265 6.07032 32.107 5.0586 32.8125 4.52813C33.518 3.99766 34.3547 3.60391 34.8851 4.13438ZM34.6172 15.2359C33.4742 15.1047 33.518 17.9211 33.5617 21.3609C33.6164 25.7688 33.5617 27.8359 34.4859 27.7922C35.5414 27.743 35.2351 25.5445 35.2351 20.9617C35.2351 18.4461 35.4976 15.3344 34.6172 15.2359ZM8.18671 18.0961C6.69374 18.5609 7.34999 20.3875 7.74374 21.7109C7.9953 22.5531 8.76092 24.9539 10.1664 24.5328C11.5719 24.1117 10.7406 22.1102 10.4289 20.8305C10.1281 19.5508 9.46639 17.7023 8.18671 18.0961ZM50.4766 48.9781C49.5961 48.9781 49.5086 50.6516 49.5086 52.15C49.5086 53.6484 49.5086 54.7477 50.5203 54.7477C51.532 54.7477 51.357 52.5438 51.357 51.7508C51.357 50.9578 51.4937 48.9781 50.4766 48.9781ZM34.5297 42.5906C33.7805 42.6234 33.693 44.3078 33.693 47.6109C33.693 50.9141 33.5125 52.8664 34.6172 52.8117C35.4976 52.768 35.3226 49.4648 35.3226 47.2172C35.3226 44.9695 35.5906 42.5469 34.5297 42.5906ZM20.3492 42.6234C20.7922 43.1375 23.0562 41.6992 24.6859 40.8023C26.6437 39.725 28.8148 38.6914 28.3555 37.7781C27.8961 36.8648 25.6047 38.4836 24.0187 39.3094C22.4328 40.1406 19.6 41.7539 20.3492 42.6234ZM13.5133 46.9055C13.0375 47.2609 11.7086 47.0367 11.1344 47.4797C10.5601 47.9227 10.4398 49.4211 9.76717 49.6836C8.75546 50.0773 7.96249 49.3773 8.48749 48.0102C9.01796 46.643 9.19296 45.7188 9.67421 45.3688C10.1609 45.0188 11.9219 45.1063 12.6273 45.1063C13.8633 45.1008 14.2187 46.375 13.5133 46.9055Z" fill="#FEFEFE"/>
</svg>
